# xmcd
#
# Track frame offsets: 
#        150
#        10556
#        22927
#        31719
#        46426
#        53531
#        61963
#        69619
#        78035
#        85286
#        99475
#        111330
#        119475
#        127954
#        139690
#        148932
#        160894
#        167793
#        174917
#        182605
#        188265
#        195320
#        208670
#        216192
#
# Disc length: 2955 seconds
#
# Revision: 0
# Processed by: cddbd v1.5.1PL2 Copyright (c) Steve Scherf et al.
# Submitted via: ExactAudioCopy v0.95a4
#
DISCID=380b8918
DTITLE=Felix Slatkin - Hoedown! The Fantastic Fiddles Of Felix Slatkin
DYEAR=2004
DGENRE=Easy Listening
TTITLE0=Arkansas Traveler
TTITLE1=Orange Blossom Special
TTITLE2=Listen To The Mockingbird
TTITLE3=Faded Love
TTITLE4=Fisher's Horn Pipe
TTITLE5=Chicken Reel
TTITLE6=Devil's Dream
TTITLE7=Turkey In The Straw
TTITLE8=Back Up And Push
TTITLE9=Maiden's Prayer
TTITLE10=Golden Slippers
TTITLE11=Fire On The Mountain
TTITLE12=Arkansas Traveler (Demo)
TTITLE13=Orange Blossom Special (Demo)
TTITLE14=Listen To The Mockingbird (Demo)
TTITLE15=Faded Love (Demo)
TTITLE16=Fisher's Horn Pipe (Demo)
TTITLE17=Chicken Reel (Demo)
TTITLE18=Devil's Dream (Demo)
TTITLE19=Turkey In The Straw (Demo)
TTITLE20=Back Up And Push (Demo)
TTITLE21=Maiden's Prayer (Demo)
TTITLE22=Golden Slippers (Demo)
TTITLE23=Fire On The Mountain (Demo)
EXTD=
EXTT0=
EXTT1=
EXTT2=
EXTT3=
EXTT4=
EXTT5=
EXTT6=
EXTT7=
EXTT8=
EXTT9=
EXTT10=
EXTT11=
EXTT12=
EXTT13=
EXTT14=
EXTT15=
EXTT16=
EXTT17=
EXTT18=
EXTT19=
EXTT20=
EXTT21=
EXTT22=
EXTT23=
PLAYORDER=
